<?xml version="1.0" encoding="UTF-8" standalone="no"?>
<!-- Created with Inkscape (http://www.inkscape.org/) -->

<svg
   width="1200"
   height="630"
   viewBox="0 0 1200 630"
   version="1.1"
   id="svg5"
   inkscape:export-filename="/home/desktop/Documents/CINTATIC/POSTS/BLOG/blog-sitioweb.png"
   inkscape:export-xdpi="96"
   inkscape:export-ydpi="96"
   inkscape:version="1.1.2 (0a00cf5339, 2022-02-04, custom)"
   sodipodi:docname="comoteayudaunsitio.svg"
   xmlns:inkscape="http://www.inkscape.org/namespaces/inkscape"
   xmlns:sodipodi="http://sodipodi.sourceforge.net/DTD/sodipodi-0.dtd"
   xmlns="http://www.w3.org/2000/svg"
   xmlns:svg="http://www.w3.org/2000/svg">
  <sodipodi:namedview
     id="namedview7"
     pagecolor="#ffffff"
     bordercolor="#666666"
     borderopacity="1.0"
     inkscape:pageshadow="2"
     inkscape:pageopacity="1"
     inkscape:pagecheckerboard="true"
     inkscape:document-units="px"
     showgrid="false"
     inkscape:zoom="0.53083333"
     inkscape:cx="410.67504"
     inkscape:cy="370.17268"
     inkscape:window-width="1920"
     inkscape:window-height="1011"
     inkscape:window-x="0"
     inkscape:window-y="32"
     inkscape:window-maximized="1"
     inkscape:current-layer="layer2" />
  <defs
     id="defs2">
    <style
       id="style2568">.cls-1,.cls-2{fill:#1a1a1a;}.cls-2{font-size:102.11px;font-family:Porter-BoldDEMO, Porter;font-weight:700;}</style>
  </defs>
  <g
     inkscape:groupmode="layer"
     id="layer2"
     inkscape:label="Background">
    <rect
       style="fill:#fbfbfb;fill-opacity:1;stroke:none;stroke-width:7.56199;stroke-linejoin:round;stroke-miterlimit:4;stroke-dasharray:none;stroke-dashoffset:0"
       id="rect2835"
       width="1385.4956"
       height="741.18079"
       x="-61.381264"
       y="-55.021095" />
  </g>
  <g
     inkscape:label="Layer 1"
     inkscape:groupmode="layer"
     id="layer1">
    <g
       id="g1177"
       transform="matrix(0.65415148,0,0,0.65415148,313.39281,163.09729)">
      <path
         d="m 685.83423,138.6545 c 7.51624,15.99516 -8.41069,20.5258 -26.65516,29.099 -18.24447,8.5732 -31.8977,17.94247 -39.41393,1.94732 -7.51623,-15.99515 -13.61474,-47.74263 12.19523,-59.87092 26.69916,-12.5461 46.35763,12.82944 53.87386,28.8246 z"
         transform="translate(-180.86417,-106.46046)"
         fill="#2f2e41"
         id="path994" />
      <circle
         cx="467.74628"
         cy="39.089119"
         r="24.561029"
         fill="#ffb8b8"
         id="circle996" />
      <path
         d="m 770.29037,254.47277 c -0.85009,-1.11 -1.70019,-2.2 -2.56006,-3.26 q -1.66479,-2.07 -3.35009,-4.01 c -12.73,-14.69 -26.27,-23.94 -41.17969,-24.93 h -0.02 l -0.22021,-0.02 -29.71,28.96 -10.10009,9.84 0.22021,0.54 5.44971,13.57 h 95.49023 a 234.83392,234.83392 0 0 0 -14.02001,-20.69 z"
         transform="translate(-180.86417,-106.46046)"
         fill="#2f2e41"
         id="path998" />
      <path
         d="m 621.90207,155.43779 v 0 l 8.792,-4.13144 -1.22476,-12.68333 5.87908,10.49623 4.20223,-1.97466 -0.7144,-7.39862 3.42957,6.12274 31.22444,-14.67258 v 0 a 26,26 0 0 0 -34.589,-12.47385 l -4.52533,2.12648 a 26,26 0 0 0 -12.47383,34.58903 z"
         transform="translate(-180.86417,-106.46046)"
         fill="#2f2e41"
         id="path1000" />
      <path
         d="m 825.39023,601.26062 h -512.8385 a 16.51867,16.51867 0 0 1 -16.5,-16.5 V 276.60681 a 12.10184,12.10184 0 0 1 12.08789,-12.08838 h 521.45349 a 12.31112,12.31112 0 0 1 12.29712,12.29736 v 307.94483 a 16.51868,16.51868 0 0 1 -16.5,16.5 z"
         transform="translate(-180.86417,-106.46046)"
         fill="#f2f2f2"
         id="path1002" />
      <path
         d="m 328.55173,584.76062 h 480.8385 a 16,16 0 0 0 16,-16 V 307.21277 a 16,16 0 0 0 -16,-16 h -480.8385 a 16,16 0 0 0 -16,16 v 261.54785 a 16,16 0 0 0 16,16 z"
         transform="translate(-180.86417,-106.46046)"
         fill="#ffffff"
         id="path1004" />
      <path
         d="M 841.66049,275.663 H 295.82016 v -8.40039 a 16.57376,16.57376 0 0 1 16.56006,-16.5498 h 512.72021 a 16.57368,16.57368 0 0 1 16.56006,16.5498 z"
         transform="translate(-180.86417,-106.46046)"
         fill="#000000"
         id="path1006" />
      <circle
         cx="145.05135"
         cy="156.7523"
         r="4.2834201"
         fill="#ffffff"
         id="circle1008" />
      <circle
         cx="161.31015"
         cy="156.7523"
         r="4.2834201"
         fill="#ffffff"
         id="circle1010" />
      <circle
         cx="177.56895"
         cy="156.7523"
         r="4.2834201"
         fill="#ffffff"
         id="circle1012" />
      <path
         d="m 583.97441,528.03954 h -43 a 9.51081,9.51081 0 0 1 -9.5,-9.5 v -43 a 9.51081,9.51081 0 0 1 9.5,-9.5 h 43 a 9.51081,9.51081 0 0 1 9.5,9.5 v 43 a 9.51081,9.51081 0 0 1 -9.5,9.5 z m -43,-60 a 7.50835,7.50835 0 0 0 -7.5,7.5 v 43 a 7.50836,7.50836 0 0 0 7.5,7.5 h 43 a 7.50836,7.50836 0 0 0 7.5,-7.5 v -43 a 7.50835,7.50835 0 0 0 -7.5,-7.5 z"
         transform="translate(-180.86417,-106.46046)"
         fill="#cccccc"
         id="path1014" />
      <path
         d="m 575.47441,516.03954 h -26 a 3.00328,3.00328 0 0 1 -3,-3 v -32 a 3.00328,3.00328 0 0 1 3,-3 h 18.83935 a 3.0073,3.0073 0 0 1 1.8794,0.66162 l 7.16016,5.7539 a 2.9844,2.9844 0 0 1 1.12109,2.33838 v 26.2461 a 3.00328,3.00328 0 0 1 -3,3 z m -26,-36 a 1.0013,1.0013 0 0 0 -1,1 v 32 a 1.0013,1.0013 0 0 0 1,1 h 26 a 1.0013,1.0013 0 0 0 1,-1 v -26.2461 a 0.99457,0.99457 0 0 0 -0.37354,-0.77929 l -7.16113,-5.7544 a 1.00206,1.00206 0 0 0 -0.626,-0.22021 z"
         transform="translate(-180.86417,-106.46046)"
         fill="#cccccc"
         id="path1016" />
      <path
         d="m 570.47441,492.03954 h -16 a 1,1 0 0 1 0,-2 h 16 a 1,1 0 0 1 0,2 z"
         transform="translate(-180.86417,-106.46046)"
         fill="#cccccc"
         id="path1018" />
      <path
         d="m 570.47441,498.03954 h -16 a 1,1 0 0 1 0,-2 h 16 a 1,1 0 0 1 0,2 z"
         transform="translate(-180.86417,-106.46046)"
         fill="#cccccc"
         id="path1020" />
      <path
         d="m 570.47441,504.03954 h -16 a 1,1 0 0 1 0,-2 h 16 a 1,1 0 0 1 0,2 z"
         transform="translate(-180.86417,-106.46046)"
         fill="#cccccc"
         id="path1022" />
      <path
         d="m 685.97441,528.03954 h -43 a 9.51081,9.51081 0 0 1 -9.5,-9.5 v -43 a 9.51081,9.51081 0 0 1 9.5,-9.5 h 43 a 9.51081,9.51081 0 0 1 9.5,9.5 v 43 a 9.51081,9.51081 0 0 1 -9.5,9.5 z m -43,-60 a 7.50835,7.50835 0 0 0 -7.5,7.5 v 43 a 7.50836,7.50836 0 0 0 7.5,7.5 h 43 a 7.50836,7.50836 0 0 0 7.5,-7.5 v -43 a 7.50835,7.50835 0 0 0 -7.5,-7.5 z"
         transform="translate(-180.86417,-106.46046)"
         fill="#cccccc"
         id="path1024" />
      <path
         d="m 678.47441,508.03954 h -28 a 3.00328,3.00328 0 0 1 -3,-3 v -16 a 3.00328,3.00328 0 0 1 3,-3 h 28 a 3.00328,3.00328 0 0 1 3,3 v 16 a 3.00328,3.00328 0 0 1 -3,3 z m -28,-20 a 1.001,1.001 0 0 0 -1,1 v 16 a 1.001,1.001 0 0 0 1,1 h 28 a 1.001,1.001 0 0 0 1,-1 v -16 a 1.001,1.001 0 0 0 -1,-1 z"
         transform="translate(-180.86417,-106.46046)"
         fill="#cccccc"
         id="path1026" />
      <path
         d="m 664.47441,499.67772 a 3.00345,3.00345 0 0 1 -1.58984,-0.45264 l -14.94043,-9.3374 a 1.00027,1.00027 0 0 1 1.06054,-1.69629 l 14.94043,9.3374 a 1.00555,1.00555 0 0 0 1.05957,0 l 14.93946,-9.3374 a 1.00027,1.00027 0 0 1 1.06054,1.69629 l -14.93945,9.3374 a 3.00432,3.00432 0 0 1 -1.59082,0.45264 z"
         transform="translate(-180.86417,-106.46046)"
         fill="#cccccc"
         id="path1028" />
      <path
         d="m 481.97441,528.03954 h -43 a 9.51081,9.51081 0 0 1 -9.5,-9.5 v -43 a 9.51081,9.51081 0 0 1 9.5,-9.5 h 43 a 9.51081,9.51081 0 0 1 9.5,9.5 v 43 a 9.51081,9.51081 0 0 1 -9.5,9.5 z m -43,-60 a 7.50835,7.50835 0 0 0 -7.5,7.5 v 43 a 7.50836,7.50836 0 0 0 7.5,7.5 h 43 a 7.50836,7.50836 0 0 0 7.5,-7.5 v -43 a 7.50835,7.50835 0 0 0 -7.5,-7.5 z"
         transform="translate(-180.86417,-106.46046)"
         fill="#cccccc"
         id="path1030" />
      <path
         d="m 474.47441,508.03954 h -28 a 3.00328,3.00328 0 0 1 -3,-3 v -16 a 3.00328,3.00328 0 0 1 3,-3 h 28 a 3.00328,3.00328 0 0 1 3,3 v 16 a 3.00328,3.00328 0 0 1 -3,3 z m -28,-20 a 1.001,1.001 0 0 0 -1,1 v 16 a 1.001,1.001 0 0 0 1,1 h 28 a 1.001,1.001 0 0 0 1,-1 v -16 a 1.001,1.001 0 0 0 -1,-1 z"
         transform="translate(-180.86417,-106.46046)"
         fill="#cccccc"
         id="path1032" />
      <path
         d="m 470.03642,508.03954 h -20.124 a 1.99958,1.99958 0 0 1 -1.73194,-3 l 6.06153,-10.5 a 2.00022,2.00022 0 0 1 3.46435,0 l 3.915,6.78125 2.26807,-3.92871 a 2.00022,2.00022 0 0 1 3.46435,0 l 4.415,7.64746 a 2,2 0 0 1 -1.73242,3 z m 0,-2 v 0 l -4.415,-7.64746 -3.13379,5.42871 a 0.99985,0.99985 0 0 1 -0.86621,0.5 v 0 a 0.99985,0.99985 0 0 1 -0.86621,-0.5 l -4.78076,-8.28125 -6.062,10.5 z"
         transform="translate(-180.86417,-106.46046)"
         fill="#cccccc"
         id="path1034" />
      <circle
         cx="290.61014"
         cy="385.57889"
         r="2"
         fill="#cccccc"
         id="circle1036" />
      <polygon
         points="768.827,600.862 768.825,648.15 756.565,648.149 750.733,600.861 "
         fill="#ffb8b8"
         id="polygon1038" />
      <path
         d="m 952.81564,766.49434 -39.53051,-10e-4 v -0.5 a 15.38605,15.38605 0 0 1 15.38647,-15.38623 h 10e-4 l 24.1438,10e-4 z"
         transform="translate(-180.86417,-106.46046)"
         fill="#2f2e41"
         id="path1040" />
      <polygon
         points="818.827,600.862 818.825,648.15 806.565,648.149 800.733,600.861 "
         fill="#ffb8b8"
         id="polygon1042" />
      <path
         d="m 1002.8156,766.49434 -39.53047,-10e-4 v -0.5 a 15.38605,15.38605 0 0 1 15.38647,-15.38623 h 10e-4 l 24.1438,10e-4 z"
         transform="translate(-180.86417,-106.46046)"
         fill="#2f2e41"
         id="path1044" />
      <path
         d="m 996.0139,734.11079 -11.35449,-3.4541 a 4.49323,4.49323 0 0 1 -3.16577,-3.833 L 970.9077,626.49751 a 0.47984,0.47984 0 0 0 -0.47851,-0.44726 0.46935,0.46935 0 0 0 -0.5105,0.40918 l -17.731,97.19922 a 4.50036,4.50036 0 0 1 -5.33471,3.59961 L 932.34154,724.269 a 4.51613,4.51613 0 0 1 -3.58179,-4.71192 l 10.7854,-159.3125 73.13795,-7.8916 -10.8679,177.72656 a 4.50464,4.50464 0 0 1 -4.4844,4.22754 4.52613,4.52613 0 0 1 -1.3169,-0.19629 z"
         transform="translate(-180.86417,-106.46046)"
         fill="#2f2e41"
         id="path1046" />
      <circle
         cx="815.08026"
         cy="290.48694"
         r="24.561029"
         fill="#ffb8b8"
         id="circle1048" />
      <path
         d="m 939.43261,561.18013 15.85815,-99.85107 a 37.85746,37.85746 0 0 1 48.00534,-30.39942 v 0 a 37.74323,37.74323 0 0 1 26.6011,43.26221 l -16.5911,89.17187 z"
         transform="translate(-180.86417,-106.46046)"
         fill="#000000"
         id="path1050" />
      <path
         d="m 1002.725,579.04609 a 10.0558,10.0558 0 0 0 1.747,-15.32 l 16.3962,-31.75128 -18.4649,1.97048 -12.73921,29.84946 a 10.11027,10.11027 0 0 0 13.06091,15.25138 z"
         transform="translate(-180.86417,-106.46046)"
         fill="#ffb8b8"
         id="path1052" />
      <path
         d="m 1006.2359,558.12555 a 4.50552,4.50552 0 0 1 -2.4265,-1.15083 l -6.2732,-5.79662 a 4.51468,4.51468 0 0 1 -1.09178,-5.05417 l 12.53748,-29.71816 -1.7786,-58.71981 a 14.49652,14.49652 0 1 1 28.727,3.91856 l 3.041,36.91226 a 46.37346,46.37346 0 0 1 -8.9377,31.39683 l -19.5521,26.43232 a 4.505,4.505 0 0 1 -3.1951,1.80387 4.45452,4.45452 0 0 1 -1.0505,-0.0243 z"
         transform="translate(-180.86417,-106.46046)"
         fill="#000000"
         id="path1054" />
      <path
         d="m 854.50508,383.5656 a 10.05575,10.05575 0 0 0 13.42647,7.58193 l 22.84575,27.47819 5.38477,-17.77183 -22.52025,-23.36914 a 10.11027,10.11027 0 0 0 -19.13674,6.08085 z"
         transform="translate(-180.86417,-106.46046)"
         fill="#ffb8b8"
         id="path1056" />
      <path
         d="m 872.40107,394.9555 a 4.50564,4.50564 0 0 1 2.00583,-1.78577 l 7.78377,-3.51672 a 4.51467,4.51467 0 0 1 5.07986,0.96521 l 22.478,23.13213 54.76621,21.25658 a 14.49652,14.49652 0 1 1 -14.80889,24.92573 l -35.17667,-11.59151 a 46.37351,46.37351 0 0 1 -25.42736,-20.47176 l -16.71728,-28.31048 a 4.50493,4.50493 0 0 1 -0.41535,-3.64558 4.45446,4.45446 0 0 1 0.43188,-0.95783 z"
         transform="translate(-180.86417,-106.46046)"
         fill="#000000"
         id="path1058" />
      <polygon
         points="830.962,403.99 835.002,375.652 834.002,407.652 815.58,439.663 "
         opacity="0.1"
         id="polygon1060" />
      <path
         d="m 993.13047,401.56313 a 6.42292,6.42292 0 0 1 -7.03053,-4.70224 9.76432,9.76432 0 0 0 -6.95075,-7.2736 c -4.5055,-1.02949 -10.01213,1.09128 -13.31351,-2.32232 a 6.63748,6.63748 0 0 1 -1.57539,-5.84234 c 0.60807,-3.31718 2.981,-5.8232 5.56326,-7.8275 a 34.06226,34.06226 0 0 1 18.8661,-7.05067 67.67657,67.67657 0 0 1 10.62084,0.52837 47.00933,47.00933 0 0 1 10.86371,1.98538 25.57605,25.57605 0 0 1 16.0017,18.68024 29.528,29.528 0 0 1 -6.0571,24.13034 31.70221,31.70221 0 0 1 -12.1606,9.25872 4.74429,4.74429 0 0 1 -3.6062,0.18291 c -2.9574,-1.17583 -2.4741,-4.83917 -1.1257,-7.28253 1.443,-2.61478 3.6634,-5.1464 2.5029,-8.32859 a 6.302,6.302 0 0 0 -3.1272,-3.3662 c -2.93989,-1.49928 -6.22818,-1.14456 -9.38873,-0.77957 z"
         transform="translate(-180.86417,-106.46046)"
         fill="#2f2e41"
         id="path1062" />
      <path
         d="m 846.29741,415.4331 h -304 a 16.51867,16.51867 0 0 1 -16.5,-16.5 v -65 a 16.51868,16.51868 0 0 1 16.5,-16.5 h 304 a 16.519,16.519 0 0 1 16.5,16.5 v 65 a 16.519,16.519 0 0 1 -16.5,16.5 z"
         transform="translate(-180.86417,-106.46046)"
         fill="#ffffff"
         id="path1064" />
      <path
         d="m 846.29724,415.93324 h -304 a 17.01917,17.01917 0 0 1 -17,-17 v -65 a 17.01916,17.01916 0 0 1 17,-17 h 304 a 17.01916,17.01916 0 0 1 17,17 v 65 a 17.01917,17.01917 0 0 1 -17,17 z m -304,-97 a 15.017,15.017 0 0 0 -15,15 v 65 a 15.017,15.017 0 0 0 15,15 h 304 a 15.017,15.017 0 0 0 15,-15 v -65 a 15.017,15.017 0 0 0 -15,-15 z"
         transform="translate(-180.86417,-106.46046)"
         fill="#3f3d56"
         id="path1066" />
      <path
         d="m 809.29724,399.43324 h -230 a 16.51868,16.51868 0 0 1 -16.5,-16.5 v -34 a 16.51867,16.51867 0 0 1 16.5,-16.5 h 230 a 16.51866,16.51866 0 0 1 16.5,16.5 v 34 a 16.51867,16.51867 0 0 1 -16.5,16.5 z"
         transform="translate(-180.86417,-106.46046)"
         fill="#f2f2f2"
         id="path1068" />
      <circle
         cx="447.92801"
         cy="254.91484"
         r="19.732281"
         fill="#ff6584"
         id="circle1070" />
      <path
         d="m 795.00425,397.4419 -27.85254,-23.35968 -27.37158,-22.95636 a 4.00031,4.00031 0 0 0 -5.15283,0.01 l -27.28321,23.06165 -6.66406,5.6333 -10.04834,-8.42737 -30.53711,-25.61084 a 3.99964,3.99964 0 0 0 -5.15234,0.01 l -30.438,25.72833 -30.917,26.13349 a 0.99994,0.99994 0 0 0 0.64746,1.76373 l 63.38672,-0.12213 20.064,-0.0386 -0.19629,0.166 59.80762,-0.11524 57.0669,-0.10992 a 0.99989,0.99989 0 0 0 0.6406,-1.76621 z"
         transform="translate(-180.86417,-106.46046)"
         fill="#3f3d56"
         id="path1072" />
      <path
         d="M 1056.1358,767.93324 H 864.13583 a 1,1 0 0 1 0,-2 h 191.99997 a 1,1 0 0 1 0,2 z"
         transform="translate(-180.86417,-106.46046)"
         fill="#cccccc"
         id="path1074" />
      <path
         d="m 784.92026,238.37274 a 11.22094,11.22094 0 0 0 -7.25,-5.1 10.30111,10.30111 0 0 0 -1.65967,-0.21 l -76.19043,-68.12 a 9.01491,9.01491 0 0 0 -5.62988,-2.69 7.66989,7.66989 0 0 0 -1.27,-0.04 9.05493,9.05493 0 0 0 -5.96,15.48 l 29.16992,25.43 47.8999,41.75 a 11.91555,11.91555 0 0 0 0.3501,2.33 11.26607,11.26607 0 0 0 9.66992,8.37 11.09212,11.09212 0 0 0 6.05029,-1 11.40659,11.40659 0 0 0 3.87988,-2.97 c 0.10987,-0.13 0.21,-0.25 0.31006,-0.39 a 11.29281,11.29281 0 0 0 0.62989,-12.84 z"
         transform="translate(-180.86417,-106.46046)"
         fill="#ffb8b8"
         id="path1076" />
      <path
         d="m 654.60043,304.02276 -0.71,-28.86 -0.6001,-23.95 -0.41015,-16.76 -0.81006,-32.67 a 9.04565,9.04565 0 0 0 -15.71,-5.25 6.92326,6.92326 0 0 0 -0.75,0.96 8.93574,8.93574 0 0 0 -1.56006,6.05 l 1.78027,47.67 0.89014,23.95 1.13965,30.55 a 12.0475,12.0475 0 0 0 -0.88965,1.41 11.248,11.248 0 0 0 -0.71,8.84 11.31144,11.31144 0 0 0 15.55957,6.63 11.30069,11.30069 0 0 0 2.78027,-18.57 z"
         transform="translate(-180.86417,-106.46046)"
         fill="#ffb8b8"
         id="path1078" />
      <path
         d="m 723.20053,222.27276 -7.07031,-19.15 -11.43994,-31.02 a 16.0055,16.0055 0 0 0 -9.9502,-9.68 c -0.17969,-0.06 -0.36963,-0.12 -0.5498,-0.17005 a 15.984,15.984 0 0 0 -13.23975,1.82 l -38.53027,24.44 a 16.09316,16.09316 0 0 0 -5.27,21.75 276.323,276.323 0 0 0 15.73,24.19 c 4.49023,6.11 12.85009,6.76 14.30029,16.76 h 28.40967 l 28.76025,-25.82 z"
         transform="translate(-180.86417,-106.46046)"
         fill="#cccccc"
         id="path1080" />
      <circle
         cx="101.16464"
         cy="326.68231"
         r="23.171659"
         fill="#a0616a"
         id="circle1082" />
      <path
         d="m 338.91551,417.19256 q 0.3425,0.27261 0.66395,0.57794 a 10.38021,10.38021 0 0 1 -0.41708,15.48365 9.72179,9.72179 0 0 1 -0.81382,0.61338 l 1.56823,52.94493 a 8.06132,8.06132 0 0 1 -5.545,7.867 l -0.0955,0.0205 -42.98869,4.578 a 8.89852,8.89852 0 1 1 -1.72218,-17.71279 l 30.64427,-2.69888 5.29962,-45.851 a 9.87574,9.87574 0 0 1 -0.97155,-0.99 10.38,10.38 0 0 1 14.3778,-14.83273 z"
         transform="translate(-180.86417,-106.46046)"
         fill="#a0616a"
         id="path1084" />
      <polygon
         points="139.326,604.561 139.328,649.174 150.895,649.174 156.397,604.561 "
         fill="#a0616a"
         id="polygon1086" />
      <path
         d="m 317.24235,751.8583 22.778,-9.3e-4 h 9.2e-4 a 14.5157,14.5157 0 0 1 14.51609,14.51587 v 0.47171 l -37.29436,10e-4 z"
         transform="translate(-180.86417,-106.46046)"
         fill="#2f2e41"
         id="path1088" />
      <polygon
         points="47.189,594.849 24.366,633.182 34.304,639.099 61.857,603.582 "
         fill="#a0616a"
         id="polygon1090" />
      <path
         d="m 204.6271,734.88875 19.57164,11.65289 7.9e-4,4.7e-4 a 14.5157,14.5157 0 0 1 5.04582,19.89892 l -0.24134,0.40531 -32.04449,-19.07934 z"
         transform="translate(-180.86417,-106.46046)"
         fill="#2f2e41"
         id="path1092" />
      <path
         d="m 334.4881,739.87708 h -12.95169 a 4.23772,4.23772 0 0 1 -4.22149,-3.79676 L 304.25773,613.34293 a 1.41541,1.41541 0 0 0 -2.69716,-0.433 l -23.5554,52.15872 -41.70358,68.00266 a 4.26564,4.26564 0 0 1 -5.32891,1.66575 l -16.66024,-7.33 a 4.24672,4.24672 0 0 1 -1.93478,-6.06413 l 38.33707,-64.19208 11.75766,-54.0852 c -3.69795,-23.455 12.155,-58.326 12.31575,-58.67614 l 0.0786,-0.17044 43.66751,-17.06765 0.219,0.2681 c 17.22117,56.51377 27.715,117.3322 19.96672,208.5678 a 4.27417,4.27417 0 0 1 -4.23182,3.88976 z"
         transform="translate(-180.86417,-106.46046)"
         fill="#2f2e41"
         id="path1094" />
      <path
         d="m 273.10743,549.934 -0.20339,-0.42749 c -0.0972,-0.20454 -9.807,-20.68365 -17.292,-42.57146 a 32.28512,32.28512 0 0 1 2.23858,-25.87344 32.6374,32.6374 0 0 1 20.81263,-16.00426 v 0 a 32.677,32.677 0 0 1 37.92775,19.56974 c 5.93722,14.84708 4.045,30.69452 2.26429,43.15723 l -0.0355,0.24967 -0.22711,0.10872 z"
         transform="translate(-180.86417,-106.46046)"
         fill="#3f3d56"
         id="path1096" />
      <path
         d="m 310.12378,420.05358 h -36.79386 v -16.03835 c 8.07584,-3.20838 15.97847,-5.93693 20.75551,0 a 16.03844,16.03844 0 0 1 16.03835,16.03833 z"
         transform="translate(-180.86417,-106.46046)"
         fill="#2f2e41"
         id="path1098" />
      <path
         d="m 271.29289,401.18493 c -21.99607,0 -28.15279,27.57121 -28.15279,43.12552 0,8.67446 3.923,11.777 10.08753,12.8268 l 2.17708,-11.611 5.09905,12.11064 c 1.73162,0.009 3.55077,-0.0249 5.43671,-0.0599 l 1.72886,-3.55986 3.85527,3.496 c 15.44087,0.023 27.92061,2.27382 27.92061,-13.20269 0,-15.55431 -5.39939,-43.12552 -28.15232,-43.12552 z"
         transform="translate(-180.86417,-106.46046)"
         fill="#2f2e41"
         id="path1100" />
      <path
         d="m 373.86417,767.93324 h -192 a 1,1 0 1 1 0,-2 h 192 a 1,1 0 0 1 0,2 z"
         transform="translate(-180.86417,-106.46046)"
         fill="#cccccc"
         id="path1102" />
      <path
         d="m 377.47441,438.93324 h -43 a 9.51081,9.51081 0 0 1 -9.5,-9.5 v -43 a 9.51081,9.51081 0 0 1 9.5,-9.5 h 43 a 9.51081,9.51081 0 0 1 9.5,9.5 v 43 a 9.51081,9.51081 0 0 1 -9.5,9.5 z"
         transform="translate(-180.86417,-106.46046)"
         fill="#ffffff"
         id="path1104" />
      <path
         d="m 377.47441,438.93324 h -43 a 9.51081,9.51081 0 0 1 -9.5,-9.5 v -43 a 9.51081,9.51081 0 0 1 9.5,-9.5 h 43 a 9.51081,9.51081 0 0 1 9.5,9.5 v 43 a 9.51081,9.51081 0 0 1 -9.5,9.5 z m -43,-60 a 7.50836,7.50836 0 0 0 -7.5,7.5 v 43 a 7.50836,7.50836 0 0 0 7.5,7.5 h 43 a 7.50836,7.50836 0 0 0 7.5,-7.5 v -43 a 7.50836,7.50836 0 0 0 -7.5,-7.5 z"
         transform="translate(-180.86417,-106.46046)"
         fill="#3f3d56"
         id="path1106" />
      <path
         d="m 369.97441,421.43324 h -28 a 3.00328,3.00328 0 0 1 -3,-3 v -21 a 3.00328,3.00328 0 0 1 3,-3 h 7.88232 a 2.98117,2.98117 0 0 1 2.55518,1.42724 l 2.19824,3.57276 h 15.36426 a 3.00328,3.00328 0 0 1 3,3 v 16 a 3.00328,3.00328 0 0 1 -3,3 z"
         transform="translate(-180.86417,-106.46046)"
         fill="#000000"
         id="path1108" />
      <path
         d="m 369.06364,432.04239 q 0.20986,0.38415 0.38766,0.79029 a 10.38021,10.38021 0 0 1 -6.39269,14.10854 9.72022,9.72022 0 0 1 -0.98807,0.24953 l -19.09943,49.40482 a 8.06134,8.06134 0 0 1 -8.16324,5.09887 l -0.096,-0.0182 -41.39664,-12.46211 a 8.89853,8.89853 0 1 1 5.28606,-16.99313 l 29.29033,9.40382 22.6764,-40.20175 a 9.87622,9.87622 0 0 1 -0.51127,-1.28942 10.38005,10.38005 0 0 1 19.0069,-8.0913 z"
         transform="translate(-180.86417,-106.46046)"
         fill="#a0616a"
         id="path1110" />
    </g>
    <g
       id="g2734"
       transform="translate(177.37684,88.561763)">
      <path
         class="cls-1"
         d="m 239.94906,23.02668 a 57,57 0 0 1 -15.85,11.37 41.3,41.3 0 0 1 -18,4 43,43 0 0 1 -18.27,-3.79 43.89,43.89 0 0 1 -22.87,-24.17 44.46,44.46 0 0 1 -3.11,-16.29 43.41,43.41 0 0 1 3.68,-17.89 44.46,44.46 0 0 1 9.82,-14.11 45,45 0 0 1 14.18,-9.16 42.81,42.81 0 0 1 33.8,0.38 47.35,47.35 0 0 1 15.23,10.5 l -9,9.07 a 4.58,4.58 0 0 1 -6.08,0.43 31,31 0 0 0 -6.63,-4 26,26 0 0 0 -10.75,-2.36 25.61,25.61 0 0 0 -10.5,2.17 28.05,28.05 0 0 0 -8.58,5.84 27.24,27.24 0 0 0 -5.78,8.64 26.69,26.69 0 0 0 -2.11,10.56 26.31,26.31 0 0 0 2.11,10.51 27.05,27.05 0 0 0 14.36,14.35 26.24,26.24 0 0 0 10.5,2.12 25,25 0 0 0 11.5,-2.68 37,37 0 0 0 7,-4.65 4.64,4.64 0 0 1 6.25,0.23 z"
         id="path2574"
         style="fill:#000000" />
      <path
         class="cls-1"
         d="m 683.39906,23.02668 a 56.91,56.91 0 0 1 -15.87,11.37 41.33,41.33 0 0 1 -18,4 43,43 0 0 1 -18.28,-3.79 44.62,44.62 0 0 1 -26,-40.46 43.4,43.4 0 0 1 3.76,-17.89 44.62,44.62 0 0 1 9.82,-14.11 45.26,45.26 0 0 1 14.17,-9.2 42.83,42.83 0 0 1 33.81,0.38 47.42,47.42 0 0 1 15.22,10.5 l -9,9.07 a 4.59,4.59 0 0 1 -6.09,0.43 31.19,31.19 0 0 0 -6.62,-4 26.06,26.06 0 0 0 -10.75,-2.36 25.69,25.69 0 0 0 -10.51,2.17 28.13,28.13 0 0 0 -8.57,5.84 27.08,27.08 0 0 0 -5.78,8.64 26.7,26.7 0 0 0 -2.12,10.56 26.32,26.32 0 0 0 2.12,10.51 27.08,27.08 0 0 0 14.35,14.35 26.32,26.32 0 0 0 10.51,2.12 25,25 0 0 0 11.49,-2.68 36.66,36.66 0 0 0 7,-4.65 4.65,4.65 0 0 1 6.26,0.23 z"
         id="path2576"
         style="fill:#000000" />
      <path
         class="cls-1"
         d="m 253.45906,37.56668 v -87 h 8.28 a 8.87,8.87 0 0 1 8.87,8.88 v 67.89 a 10.23,10.23 0 0 1 -10.23,10.23 z"
         id="path2578"
         style="fill:#000000" />
      <path
         class="cls-1"
         d="m 574.69906,37.56668 v -87 h 8.27 a 8.87,8.87 0 0 1 8.88,8.88 v 67.89 a 10.23,10.23 0 0 1 -10.23,10.23 z"
         id="path2580"
         style="fill:#000000" />
      <path
         class="cls-1"
         d="m 284.10906,-49.43332 v 0 a 17.22,17.22 0 0 1 12.7,5.59 l 39.19,42.82 a 1.53,1.53 0 0 0 2.67,-1 v -30.26 a 17.15,17.15 0 0 1 17.15,-17.15 v 0 87 0 a 18.27,18.27 0 0 1 -13.08,-5.52 l -39,-40 a 1.44,1.44 0 0 0 -2.47,1 v 27.42 a 17.15,17.15 0 0 1 -17.15,17.15 v 0 z"
         id="path2582"
         style="fill:#000000" />
      <path
         class="cls-1"
         d="m 557.34906,-32.16332 h -16.91 a 3.1,3.1 0 0 0 -3.1,3.1 v 56.4 a 10.23,10.23 0 0 1 -10.23,10.23 h -7 v -66.63 a 3.1,3.1 0 0 0 -3.1,-3.1 h -17.2 a 3.85,3.85 0 0 1 -3.86,-3.85 v -13.42 h 65.26 v 13.42 a 3.85,3.85 0 0 1 -3.86,3.85 z"
         id="path2584"
         style="fill:#000000" />
      <path
         class="cls-1"
         d="m 430.57906,-32.16332 h -16.91 a 3.09,3.09 0 0 0 -3.09,3.1 v 56.4 a 10.23,10.23 0 0 1 -10.23,10.23 h -7.05 v -66.63 a 3.1,3.1 0 0 0 -3.1,-3.1 h -17.16 a 3.85,3.85 0 0 1 -3.85,-3.85 v -13.42 h 65.25 v 13.42 a 3.85,3.85 0 0 1 -3.86,3.85 z"
         id="path2586"
         style="fill:#000000" />
      <path
         class="cls-1"
         d="m 469.13906,-49.43332 38.9,87 h -11.39 a 11.75,11.75 0 0 1 -10.73,-7 l -2.88,-6.47 a 4.18,4.18 0 0 0 -3.82,-2.48 h -27.69 a 4.18,4.18 0 0 0 -3.83,2.5 c -0.77,1.75 -1.58,3.59 -2.45,5.52 -0.14,0.32 -0.29,0.64 -0.43,1 a 11.71,11.71 0 0 1 -10.71,6.94 h -11.21 l 38.9,-87 z m 5.09,53.82 -8,-18.1 a 1,1 0 0 0 -1.81,0 l -8.05,18.1 z"
         id="path2588"
         style="fill:#000000" />
    </g>
  </g>
</svg>
