<?xml version="1.0" encoding="UTF-8" standalone="no"?>
<svg
   id="Layer_1"
   data-name="Layer 1"
   viewBox="0 0 896.00392 169.0773"
   version="1.1"
   sodipodi:docname="cintaticweb-02.svg"
   width="896.00391"
   height="169.0773"
   inkscape:version="1.1.2 (0a00cf5339, 2022-02-04, custom)"
   xmlns:inkscape="http://www.inkscape.org/namespaces/inkscape"
   xmlns:sodipodi="http://sodipodi.sourceforge.net/DTD/sodipodi-0.dtd"
   xmlns="http://www.w3.org/2000/svg"
   xmlns:svg="http://www.w3.org/2000/svg"
   xmlns:rdf="http://www.w3.org/1999/02/22-rdf-syntax-ns#"
   xmlns:cc="http://creativecommons.org/ns#"
   xmlns:dc="http://purl.org/dc/elements/1.1/">
  <sodipodi:namedview
     id="namedview25"
     pagecolor="#ffffff"
     bordercolor="#666666"
     borderopacity="1.0"
     inkscape:pageshadow="2"
     inkscape:pageopacity="0.0"
     inkscape:pagecheckerboard="0"
     showgrid="false"
     fit-margin-top="10"
     lock-margins="true"
     fit-margin-left="10"
     fit-margin-right="10"
     fit-margin-bottom="10"
     inkscape:zoom="1.3110073"
     inkscape:cx="213.57623"
     inkscape:cy="89.625741"
     inkscape:window-width="1920"
     inkscape:window-height="1050"
     inkscape:window-x="0"
     inkscape:window-y="30"
     inkscape:window-maximized="1"
     inkscape:current-layer="Layer_1" />
  <defs
     id="defs4">
    <style
       id="style2">.cls-1{fill:#fff;}</style>
  </defs>
  <title
     id="title6">cintaticweb</title>
  <path
     class="cls-1"
     d="m 141.06392,133.18001 a 95.41,95.41 0 0 1 -26.61,19.11 69.62,69.62 0 0 1 -30.170001,6.78 72.18,72.18 0 0 1 -30.69,-6.37 74.92,74.92 0 0 1 -43.59,-67.949999 72.79,72.79 0 0 1 6.16,-30.07 74.59,74.59 0 0 1 16.44,-23.69 75.6,75.6 0 0 1 23.8,-15.45 71.89,71.89 0 0 1 56.790001,0.62 80.12,80.12 0 0 1 25.58,17.69 l -15.08,15.24 a 7.72,7.72 0 0 1 -10.22,0.73 52,52 0 0 0 -11.13,-6.78 44,44 0 0 0 -18.060001,-4 43,43 0 0 0 -17.65,3.66 47.07,47.07 0 0 0 -14.4,9.81 45.53,45.53 0 0 0 -9.71,14.51 44.83,44.83 0 0 0 -3.52,17.73 44.09,44.09 0 0 0 3.55,17.639999 45.48,45.48 0 0 0 24.11,24.11 44.11,44.11 0 0 0 17.65,3.55 42.08,42.08 0 0 0 19.310001,-4.49 62.66,62.66 0 0 0 11.76,-7.81 7.79,7.79 0 0 1 10.5,0.38 z"
     id="path8"
     style="fill:#000000" />
  <path
     class="cls-1"
     d="m 886.00392,133.18001 a 95.46,95.46 0 0 1 -26.62,19.11 69.56,69.56 0 0 1 -30.17,6.78 72.24,72.24 0 0 1 -30.69,-6.37 74.93,74.93 0 0 1 -43.63,-67.949999 72.79,72.79 0 0 1 6.11,-30.07 74.59,74.59 0 0 1 16.49,-23.69 75.49,75.49 0 0 1 23.8,-15.45 71.89,71.89 0 0 1 56.79,0.62 80,80 0 0 1 25.6,17.69 l -15.08,15.19 a 7.72,7.72 0 0 1 -10.22,0.73 51.74,51.74 0 0 0 -11.13,-6.78 44,44 0 0 0 -18.06,-4 43,43 0 0 0 -17.64,3.66 47.24,47.24 0 0 0 -14.41,9.81 45.5,45.5 0 0 0 -9.7,14.51 44.83,44.83 0 0 0 -3.55,17.75 44.09,44.09 0 0 0 3.55,17.639999 45.39,45.39 0 0 0 24.11,24.11 44.09,44.09 0 0 0 17.64,3.55 42,42 0 0 0 19.31,-4.49 62.34,62.34 0 0 0 11.76,-7.81 7.8,7.8 0 0 1 10.51,0.38 z"
     id="path10"
     style="fill:#000000" />
  <path
     class="cls-1"
     d="M 163.77392,157.61001 V 11.470011 h 13.9 a 14.91,14.91 0 0 1 14.91,14.91 V 140.43001 a 17.18,17.18 0 0 1 -17.18,17.18 z"
     id="path12"
     style="fill:#000000" />
  <path
     class="cls-1"
     d="M 703.38392,157.61001 V 11.470011 h 13.9 a 14.91,14.91 0 0 1 14.92,14.91 V 140.43001 a 17.19,17.19 0 0 1 -17.2,17.18 z"
     id="path14"
     style="fill:#000000" />
  <path
     class="cls-1"
     d="m 215.25392,11.470011 v 0 a 28.9,28.9 0 0 1 21.33,9.38 l 65.83,71.93 a 2.58,2.58 0 0 0 4.49,-1.75 v -50.75 a 28.81,28.81 0 0 1 28.82,-28.81 v 0 146.139999 0 a 30.66,30.66 0 0 1 -22,-9.27 l -65.51,-67.289999 a 2.42,2.42 0 0 0 -4.15,1.69 v 46.109999 a 28.81,28.81 0 0 1 -28.81,28.81 v 0 z"
     id="path16"
     style="fill:#000000" />
  <path
     class="cls-1"
     d="m 674.24392,40.490011 h -28.41 a 5.2,5.2 0 0 0 -5.2,5.2 v 94.739999 a 17.18,17.18 0 0 1 -17.19,17.18 h -11.83 V 45.690011 a 5.2,5.2 0 0 0 -5.2,-5.2 h -28.83 a 6.47,6.47 0 0 1 -6.47,-6.48 v -22.54 h 109.6 v 22.54 a 6.47,6.47 0 0 1 -6.47,6.48 z"
     id="path18"
     style="fill:#000000" />
  <path
     class="cls-1"
     d="m 461.30392,40.490011 h -28.41 a 5.19,5.19 0 0 0 -5.2,5.2 v 94.739999 a 17.19,17.19 0 0 1 -17.19,17.18 h -11.83 V 45.690011 a 5.2,5.2 0 0 0 -5.2,-5.2 h -28.83 a 6.48,6.48 0 0 1 -6.48,-6.48 v -22.54 h 109.61 v 22.54 a 6.48,6.48 0 0 1 -6.47,6.48 z"
     id="path20"
     style="fill:#000000" />
  <path
     class="cls-1"
     d="m 526.05392,11.470011 65.35,146.139999 h -19.13 a 19.72,19.72 0 0 1 -18,-11.7 l -4.83,-10.86 a 7,7 0 0 0 -6.44,-4.2 h -46.59 a 7,7 0 0 0 -6.42,4.19 q -2,4.43 -4.12,9.27 l -0.72,1.6 a 19.7,19.7 0 0 1 -18,11.66 h -18.76 l 65.35,-146.099999 z m 8.56,90.399999 -13.5,-30.399999 a 1.67,1.67 0 0 0 -3.05,0 l -13.51,30.379999 z"
     id="path22"
     style="fill:#000000" />
  <metadata
     id="metadata63">
    <rdf:RDF>
      <cc:Work
         rdf:about="">
        <dc:title>cintaticweb</dc:title>
      </cc:Work>
    </rdf:RDF>
  </metadata>
</svg>
